<?xml version="1.0" encoding="UTF-8"?>
<svg width="780px" height="781px" viewBox="0 0 780 781" version="1.1" xmlns="http://www.w3.org/2000/svg" xmlns:xlink="http://www.w3.org/1999/xlink">
    <!-- Generator: Sketch 49.1 (51147) - http://www.bohemiancoding.com/sketch -->
    <title>Group Copy</title>
    <desc>Created with Sketch.</desc>
    <defs>
        <linearGradient x1="50%" y1="0%" x2="50%" y2="100%" id="linearGradient-1">
            <stop stop-color="#B4EC51" offset="0%"></stop>
            <stop stop-color="#429321" offset="100%"></stop>
        </linearGradient>
        <path d="M594.140625,1.3295609e-14 C706.875,1.3295609e-14 780,73.1254667 780,185.860561 L780,594.144417 C780,706.879511 706.875,780.004978 594.140625,780.004978 L185.859375,780.004978 C73.125,780.004978 0,706.879511 0,594.144417 L0,185.860561 C0,73.1254667 73.125,1.3295609e-14 185.859375,1.3295609e-14 L594.140625,1.3295609e-14 Z" id="path-2"></path>
    </defs>
    <g id="logo-concept" stroke="none" stroke-width="1" fill="none" fill-rule="evenodd">
        <g id="logo-option-4" transform="translate(-122.000000, -122.000000)">
            <g id="Group-Copy" transform="translate(122.000000, 122.000000)">
                <mask id="mask-3" fill="white">
                    <use xlink:href="#path-2"></use>
                </mask>
                <use id="Mask" fill="url(#linearGradient-1)" xlink:href="#path-2"></use>
                <g id="Group" style="mix-blend-mode: overlay;" mask="url(#mask-3)" fill="#FFFFFF" fill-rule="nonzero">
                    <g transform="translate(141.000000, 197.000000)">
                        <ellipse id="Oval" cx="63" cy="62.5" rx="63" ry="62.5"></ellipse>
                        <ellipse id="Oval" cx="418" cy="62.5" rx="63" ry="62.5"></ellipse>
                        <polygon id="Shape" points="354.285714 240 312.571429 240 312.571429 282 270.857143 282 270.857143 240 229.142857 240 229.142857 282 187.428571 282 187.428571 240 145.714286 240 145.714286 282 104 282 104 324 145.714286 324 145.714286 366 187.428571 366 187.428571 324 229.142857 324 229.142857 366 270.857143 366 270.857143 324 312.571429 324 312.571429 366 354.285714 366 354.285714 324 396 324 396 282 354.285714 282"></polygon>
                    </g>
                </g>
            </g>
        </g>
    </g>
</svg>